<?xml version="1.0" encoding="UTF-8" standalone="no"?><svg xmlns="http://www.w3.org/2000/svg" xmlns:xlink="http://www.w3.org/1999/xlink" contentScriptType="application/ecmascript" contentStyleType="text/css" height="386px" preserveAspectRatio="none" style="width:284px;height:386px;" version="1.1" viewBox="0 0 284 386" width="284px" zoomAndPan="magnify"><defs><filter height="300%" id="f111bpk739no6g" width="300%" x="-1" y="-1"><feGaussianBlur result="blurOut" stdDeviation="2.0"/><feColorMatrix in="blurOut" result="blurOut2" type="matrix" values="0 0 0 0 0 0 0 0 0 0 0 0 0 0 0 0 0 0 .4 0"/><feOffset dx="4.0" dy="4.0" in="blurOut2" result="blurOut3"/><feBlend in="SourceGraphic" in2="blurOut3" mode="normal"/></filter></defs><g><ellipse cx="100.2188" cy="16" fill="#000000" filter="url(#f111bpk739no6g)" rx="10" ry="10" style="stroke:none;stroke-width:1.0;"/><rect fill="#FEFECE" filter="url(#f111bpk739no6g)" height="34.1328" rx="12.5" ry="12.5" style="stroke:#A80036;stroke-width:1.5;" width="87" x="56.7188" y="67"/><text fill="#000000" font-family="sans-serif" font-size="12" lengthAdjust="spacing" textLength="67" x="66.7188" y="88.6016">idade = 19</text><polygon fill="#FEFECE" filter="url(#f111bpk739no6g)" points="100.2188,147,112.2188,159,100.2188,171,88.2188,159,100.2188,147" style="stroke:#A80036;stroke-width:1.5;"/><rect fill="#FEFECE" filter="url(#f111bpk739no6g)" height="34.1328" rx="12.5" ry="12.5" style="stroke:#A80036;stroke-width:1.5;" width="114" x="156.2188" y="142"/><text fill="#000000" font-family="sans-serif" font-size="12" lengthAdjust="spacing" textLength="94" x="166.2188" y="163.6016">escrever(Adulto)</text><rect fill="#000000" filter="url(#f111bpk739no6g)" height="8" style="stroke:none;stroke-width:1.0;" width="80" x="116.2188" y="230"/><rect fill="#FEFECE" filter="url(#f111bpk739no6g)" height="34.1328" rx="12.5" ry="12.5" style="stroke:#A80036;stroke-width:1.5;" width="112" x="100.2188" y="279"/><text fill="#000000" font-family="sans-serif" font-size="12" lengthAdjust="spacing" textLength="92" x="110.2188" y="300.6016">escrever(..FIM..)</text><ellipse cx="156.2188" cy="364" fill="none" filter="url(#f111bpk739no6g)" rx="10" ry="10" style="stroke:#000000;stroke-width:1.0;"/><ellipse cx="156.7188" cy="364.5" fill="#000000" rx="6" ry="6" style="stroke:none;stroke-width:1.0;"/><!--MD5=[b0ec8c3f28dd88d8f94afd38df0948c3]
link start to idade = 19--><path d="M100.2188,26.0336 C100.2188,35.4082 100.2188,49.7285 100.2188,61.7898 " fill="none" id="start-to-idade = 19" style="stroke:#A80036;stroke-width:1.0;"/><polygon fill="#A80036" points="100.2188,66.7995,104.2188,57.7995,100.2188,61.7995,96.2188,57.7995,100.2188,66.7995" style="stroke:#A80036;stroke-width:1.0;"/><!--MD5=[612c20e5a97e2bada5b940d44a5b2d3a]
link idade = 19 to #5--><path d="M100.2188,101.0187 C100.2188,113.1619 100.2188,129.4383 100.2188,141.6547 " fill="none" id="idade = 19-to-#5" style="stroke:#A80036;stroke-width:1.0;"/><polygon fill="#A80036" points="100.2188,146.9526,104.2188,137.9526,100.2188,141.9526,96.2188,137.9526,100.2188,146.9526" style="stroke:#A80036;stroke-width:1.0;"/><text fill="#000000" font-family="sans-serif" font-size="11" lengthAdjust="spacing" textLength="75" x="6" y="136.5828">(idade &gt;= 18)</text><!--MD5=[1e548aff47cbed20ac2b515188285f1d]
link #5 to escrever(Adulto)--><path d="M112.3118,159 C121.9285,159 136.182,159 150.9664,159 " fill="none" id="#5-to-escrever(Adulto)" style="stroke:#A80036;stroke-width:1.0;"/><polygon fill="#A80036" points="155.9946,159,146.9946,155,150.9946,159,146.9946,163,155.9946,159" style="stroke:#A80036;stroke-width:1.0;"/><text fill="#000000" font-family="sans-serif" font-size="11" lengthAdjust="spacing" textLength="22" x="123.2188" y="153.6348">true</text><!--MD5=[b386ade28f16032538101584a358d534]
link escrever(Adulto) to REDIRECT_CHECK--><path d="M200.2846,176.0187 C188.4537,191.5856 171.4605,213.9451 162.4234,225.8361 " fill="none" id="escrever(Adulto)-to-REDIRECT_CHECK" style="stroke:#A80036;stroke-width:1.0;"/><polygon fill="#A80036" points="159.2758,229.9776,167.9062,225.2326,162.3012,225.9968,161.537,220.3918,159.2758,229.9776" style="stroke:#A80036;stroke-width:1.0;"/><!--MD5=[b9d12d0660e3b55ab335c5375e3d2a2a]
link #5 to REDIRECT_CHECK--><path d="M105.3868,165.9214 C115.6928,179.7242 138.7683,210.6288 149.9317,225.5798 " fill="none" id="#5-to-REDIRECT_CHECK" style="stroke:#A80036;stroke-width:1.0;"/><polygon fill="#A80036" points="152.9864,229.6709,150.8069,220.0662,149.9949,225.6645,144.3967,224.8525,152.9864,229.6709" style="stroke:#A80036;stroke-width:1.0;"/><text fill="#000000" font-family="sans-serif" font-size="11" lengthAdjust="spacing" textLength="25" x="139.2188" y="207.6348">false</text><!--MD5=[e60bb23379165a16ccb45d2e241d3fbe]
link REDIRECT_CHECK to escrever(..FIM..)--><path d="M156.2188,238.068 C156.2188,245.2505 156.2188,260.6611 156.2188,273.7832 " fill="none" id="REDIRECT_CHECK-to-escrever(..FIM..)" style="stroke:#A80036;stroke-width:1.0;"/><polygon fill="#A80036" points="156.2188,278.8633,160.2188,269.8633,156.2188,273.8633,152.2188,269.8633,156.2188,278.8633" style="stroke:#A80036;stroke-width:1.0;"/><!--MD5=[d3485105f734c9a9913144cd55df2d13]
link escrever(..FIM..) to end--><path d="M156.2188,313.1593 C156.2188,324.0147 156.2188,337.9343 156.2188,348.4633 " fill="none" id="escrever(..FIM..)-to-end" style="stroke:#A80036;stroke-width:1.0;"/><polygon fill="#A80036" points="156.2188,353.626,160.2188,344.626,156.2188,348.626,152.2188,344.626,156.2188,353.626" style="stroke:#A80036;stroke-width:1.0;"/><!--MD5=[08332be9c1df4bf15502907a68fb3637]
@startuml AA_Exemplo_1_Condicional_Simples
  (*) - -> "idade = 19" 
  if "(idade >= 18)" then
    ->[true] "escrever(Adulto)"
    - -> ===REDIRECT_CHECK===  
  else
    - ->[false] ===REDIRECT_CHECK===
  endif
  - -> "escrever(..FIM..)"
  - ->(*)
@enduml

PlantUML version 1.2021.00(Sun Jan 10 07:25:05 BRT 2021)
(GPL source distribution)
Java Runtime: OpenJDK Runtime Environment
JVM: OpenJDK 64-Bit Server VM
Default Encoding: UTF-8
Language: en
Country: BR
--></g></svg>