<?xml version="1.0" encoding="UTF-8" standalone="no"?><svg xmlns="http://www.w3.org/2000/svg" xmlns:xlink="http://www.w3.org/1999/xlink" contentScriptType="application/ecmascript" contentStyleType="text/css" height="326px" preserveAspectRatio="none" style="width:223px;height:326px;" version="1.1" viewBox="0 0 223 326" width="223px" zoomAndPan="magnify"><defs><filter height="300%" id="f1jnavze5qglxk" width="300%" x="-1" y="-1"><feGaussianBlur result="blurOut" stdDeviation="2.0"/><feColorMatrix in="blurOut" result="blurOut2" type="matrix" values="0 0 0 0 0 0 0 0 0 0 0 0 0 0 0 0 0 0 .4 0"/><feOffset dx="4.0" dy="4.0" in="blurOut2" result="blurOut3"/><feBlend in="SourceGraphic" in2="blurOut3" mode="normal"/></filter></defs><g><text fill="#000000" font-family="sans-serif" font-size="18" lengthAdjust="spacing" textLength="81" x="70" y="27.4023">URI_1001</text><ellipse cx="108.5" cy="41.1992" fill="#000000" filter="url(#f1jnavze5qglxk)" rx="10" ry="10" style="stroke:none;stroke-width:1.0;"/><rect fill="#FEFECE" filter="url(#f1jnavze5qglxk)" height="34.1328" rx="12.5" ry="12.5" style="stroke:#A80036;stroke-width:1.5;" width="84" x="66.5" y="71.1992"/><text fill="#000000" font-family="sans-serif" font-size="12" lengthAdjust="spacing" textLength="64" x="76.5" y="92.8008">ler(largura)</text><rect fill="#FEFECE" filter="url(#f1jnavze5qglxk)" height="34.1328" rx="12.5" ry="12.5" style="stroke:#A80036;stroke-width:1.5;" width="119" x="49" y="125.332"/><text fill="#000000" font-family="sans-serif" font-size="12" lengthAdjust="spacing" textLength="99" x="59" y="146.9336">ler(comprimento)</text><rect fill="#FEFECE" filter="url(#f1jnavze5qglxk)" height="34.1328" rx="12.5" ry="12.5" style="stroke:#A80036;stroke-width:1.5;" width="195" x="11" y="179.4648"/><text fill="#000000" font-family="sans-serif" font-size="12" lengthAdjust="spacing" textLength="175" x="21" y="201.0664">area = largura * comprimento</text><rect fill="#FEFECE" filter="url(#f1jnavze5qglxk)" height="34.1328" rx="12.5" ry="12.5" style="stroke:#A80036;stroke-width:1.5;" width="103" x="57" y="233.5977"/><text fill="#000000" font-family="sans-serif" font-size="12" lengthAdjust="spacing" textLength="83" x="67" y="255.1992">escrever(area)</text><ellipse cx="108.5" cy="298.7305" fill="#FFFFFF" filter="url(#f1jnavze5qglxk)" rx="11" ry="11" style="stroke:#000000;stroke-width:1.0;"/><ellipse cx="108.5" cy="298.7305" fill="#000000" rx="6" ry="6" style="stroke:#7F7F7F;stroke-width:1.0;"/><line style="stroke:#A80036;stroke-width:1.5;" x1="108.5" x2="108.5" y1="51.1992" y2="71.1992"/><polygon fill="#A80036" points="104.5,61.1992,108.5,71.1992,112.5,61.1992,108.5,65.1992" style="stroke:#A80036;stroke-width:1.0;"/><line style="stroke:#A80036;stroke-width:1.5;" x1="108.5" x2="108.5" y1="105.332" y2="125.332"/><polygon fill="#A80036" points="104.5,115.332,108.5,125.332,112.5,115.332,108.5,119.332" style="stroke:#A80036;stroke-width:1.0;"/><line style="stroke:#A80036;stroke-width:1.5;" x1="108.5" x2="108.5" y1="159.4648" y2="179.4648"/><polygon fill="#A80036" points="104.5,169.4648,108.5,179.4648,112.5,169.4648,108.5,173.4648" style="stroke:#A80036;stroke-width:1.0;"/><line style="stroke:#A80036;stroke-width:1.5;" x1="108.5" x2="108.5" y1="213.5977" y2="233.5977"/><polygon fill="#A80036" points="104.5,223.5977,108.5,233.5977,112.5,223.5977,108.5,227.5977" style="stroke:#A80036;stroke-width:1.0;"/><line style="stroke:#A80036;stroke-width:1.5;" x1="108.5" x2="108.5" y1="267.7305" y2="287.7305"/><polygon fill="#A80036" points="104.5,277.7305,108.5,287.7305,112.5,277.7305,108.5,281.7305" style="stroke:#A80036;stroke-width:1.0;"/><!--MD5=[89bf910d4961ff2bc5bd788fb329f59a]
@startuml img_formularioFluxograma
	title URI_1001
	start
		:ler(largura);
		:ler(comprimento);
		:area = largura * comprimento;
		:escrever(area);
	stop
@enduml

PlantUML version 1.2021.00(Sun Jan 10 07:25:05 BRT 2021)
(GPL source distribution)
Java Runtime: OpenJDK Runtime Environment
JVM: OpenJDK 64-Bit Server VM
Default Encoding: UTF-8
Language: en
Country: BR
--></g></svg>